<svg width="72" height="46" viewBox="0 0 72 46" xmlns="http://www.w3.org/2000/svg"
     xmlns:xlink="http://www.w3.org/1999/xlink">
    <defs>
        <path id="a" d="M0 46h71.9491V.131H0z"/>
    </defs>
    <g fill="none" fill-rule="evenodd">
        <path fill="#000"
              d="M60.9456 14.726L59.6135 14l-4.1675 8.0222L51.2777 14l-1.3321.726 4.746 9.1338V31h1.5087v-7.1402z"/>
        <g>
            <path d="M71.8586 14.8775C71.0619 7.2516 64.938 1.0946 57.2966.2394c-4.7943-.5326-9.3913.916-12.9545 4.09-1.933 1.7223-3.391 3.8625-4.3294 6.2132H10.7212v35.3428h33.185v-2.339H13.069V12.8816h26.1853a16.4873 16.4873 0 0 0-.4312 3.3634h1.5762c.1088-4.1057 1.9025-8.0079 4.986-10.753 3.2259-2.8747 7.3855-4.1907 11.7368-3.7027 6.9159.7742 12.459 6.3465 13.179 13.2496.465 4.4487-1.0572 8.8265-4.1736 12.0091-1.9768 2.0178-3.3574 5.7079-3.3574 8.9723 0 .6534-.374 1.2475-.9524 1.515-4.0907 1.8851-8.7824 1.8851-12.8723 0l-.6574 1.4142c2.2539 1.0393 4.6737 1.5593 7.0928 1.5593 1.7295 0 3.4575-.2705 5.126-.8007v2.6072c0 .902-.626 1.6708-1.4877 1.8283-2.8769.5224-5.8711.3532-8.6658-.495l-.4563 1.4922c1.8845.5715 3.852.8592 5.8203.8592 1.2005 0 2.4018-.1076 3.5835-.3228 1.606-.2931 2.7713-1.7074 2.7713-3.3619v-3.1927c.1346-.0585.27-.1115.403-.173 1.13-.5209 1.8603-1.6709 1.8603-2.9293 0-2.845 1.2247-6.16 2.912-7.8831 3.4427-3.5155 5.123-8.3486 4.6112-13.2597"
                  fill="#000"/>
            <path fill="#000"
                  d="M29.1759 34.5769l-5.4869-4.5236 1.4964-1.801 3.679 3.0305 6.8345-8.2293 1.8086 1.4907zM7.1299 8.9151L2.2785 4.0812 3.385 2.9788l4.8514 4.8339z"/>
            <mask id="b" fill="#fff">
                <use xlink:href="#a"/>
            </mask>
            <path fill="#000" mask="url(#b)" d="M15.0253 6.8049h1.5652V.2557h-1.5652zM0 16.401h6.5731v-1.5594H0z"/>
        </g>
    </g>
</svg>
