<svg  id="icon-share" width="17px" height="16px" viewBox="0 0 17 16" version="1.1" xmlns="http://www.w3.org/2000/svg" xmlns:xlink="http://www.w3.org/1999/xlink">
    <path d="M11.94555,8.20775 L11.94555,9.70775 L9.57505,9.70775 C8.6083,9.70775 7.82505,8.92425 7.82505,7.95775 L7.82505,3.8175 L9.57505,3.8175 L9.57505,7.70775 C9.57505,7.98375 9.7988,8.20775 10.07505,8.20775 L11.94555,8.20775 Z M9.2373,0.25 C13.43005,0.25 16.84155,3.66125 16.84155,7.854 C16.84155,12.047 13.43005,15.458 9.2373,15.458 C5.6838,15.458 2.6933,13.0075 1.8633,9.70775 L5e-05,9.70775 L5e-05,8.20775 L1.6423,8.20775 L3.3943,8.20775 C3.5783,11.4095 5.99055,13.958 9.2373,13.958 C12.60305,13.958 15.09155,11.21975 15.09155,7.854 C15.09155,4.48825 12.60305,1.75 9.2373,1.75 C6.58005,1.75 4.37855,3.473 3.7333,5.83425 L2.0368,5.41125 C3.05655,2.413 5.8988,0.25 9.2373,0.25 Z" fill="currentColor"></path>
</svg>
