<svg  id="icon-themes" width="62" height="48" viewBox="0 0 62 48" version="1.1" xmlns="http://www.w3.org/2000/svg" xmlns:xlink="http://www.w3.org/1999/xlink">
    <g fill-rule="evenodd">
        <path d="M16.8128265,38 L31.1871735,38 C32.7374427,38 34,36.8623188 34,35.4637681 L34,33 L31.5890059,33 L31.5890059,35.4637681 C31.5890059,35.6630435 31.408985,35.826087 31.1871735,35.826087 L16.8128265,35.826087 C16.591015,35.826087 16.4109941,35.6630435 16.4109941,35.4637681 L16.4109941,33 L14,33 L14,35.4637681 C14,36.8623188 15.2617536,38 16.8128265,38 M44.8774519,23.20392 L44.8774519,43.59992 C44.8774519,44.70312 43.9740234,45.59992 42.8644649,45.59992 L4.42849091,45.59992 C3.31893247,45.59992 2.4155039,44.70312 2.4155039,43.59992 L2.4155039,23.20392 L44.8774519,23.20392 Z M54.7161273,25.41832 L61.0127506,33.87272 C61.5884649,34.64552 61.8268026,35.59512 61.6834779,36.54632 C61.5401532,37.49752 61.0328805,38.33592 60.2550623,38.90792 C59.6245948,39.37192 58.8781792,39.61512 58.1076078,39.61512 C57.9280494,39.61512 57.7460753,39.60152 57.5641013,39.57512 C56.6075299,39.43272 55.7628805,38.92872 55.1871662,38.15512 L50.5935299,31.98712 L51.8874779,31.03512 L56.4819195,37.20392 C56.8015818,37.63352 57.2710104,37.91352 57.802439,37.99192 C58.3330623,38.06952 58.8652961,37.93992 59.2968805,37.62152 C59.7292701,37.30392 60.0110883,36.83832 60.0908026,36.30952 C60.1705169,35.78152 60.0376597,35.25432 59.7179974,34.82392 L53.6041532,26.61512 C52.9261792,27.26712 52.181374,27.86152 51.3761792,28.38872 L50.4904649,27.05352 C54.3392961,24.53192 56.6373221,20.29592 56.6373221,15.72152 C56.6373221,8.24392 50.5138156,2.15912 42.9868545,2.15912 C35.4606987,2.15912 29.3371922,8.24392 29.3371922,15.72152 C29.3371922,17.49272 29.6890623,19.19352 30.3485169,20.80392 L47.2930364,20.80392 L47.2930364,43.59992 C47.2930364,46.02552 45.3066208,47.99992 42.8644649,47.99992 L4.42849091,47.99992 C1.98633506,47.99992 -8.05194805e-05,46.02552 -8.05194805e-05,43.59992 L-8.05194805e-05,20.80392 L28.6060753,20.80392 C28.0231143,19.18312 27.7268026,17.48072 27.7268026,15.72152 C27.7268026,15.54712 27.7469325,15.37752 27.7525688,15.20392 L7.24667273,15.20392 L7.24667273,17.99992 L4.83108831,17.99992 L4.83108831,12.80392 L28.0166727,12.80392 C29.3903351,5.83512 35.5774519,0.55912 42.9868545,0.55912 C51.4019455,0.55912 58.2477117,7.36072 58.2477117,15.72152 C58.2477117,19.32072 56.9706727,22.72952 54.7161273,25.41832 Z M43.4250563,8 C48.1534384,8 52,11.5890641 52,16 L50.3995999,16 C50.3995999,12.4116824 47.2708177,9.49295512 43.4250563,9.49295512 C40.9444361,9.49295512 38.6294574,10.7388262 37.3843461,12.7431184 L36,11.9958944 C37.5299825,9.53102547 40.3746937,8 43.4250563,8 Z" id="folder" fill="currentColor"></path>
    </g>
</svg>
