<svg id="icon-resources-cases" width="44px" height="33px" viewBox="0 0 44 33" version="1.1" xmlns="http://www.w3.org/2000/svg" xmlns:xlink="http://www.w3.org/1999/xlink">
    <path d="M35.2662511,33 L0,33 L0.0332962245,0 L19.6805911,0 L22.2302747,3.15876785 C22.2968672,3.24166718 22.3957469,3.28918265 22.5016894,3.28918265 L39.6850637,3.28918265 L39.6850637,6.92816004 L22.5016894,6.92816004 C21.29344,6.92816004 20.1643953,6.38830341 19.405645,5.44658722 L17.9461605,3.63897739 L3.6620802,3.63897739 L3.63584681,29.3610226 L35.2662511,29.3610226 C35.418102,29.3610226 35.5512869,29.2629588 35.5987088,29.1183904 L40.3545196,14.6893573 C40.3968966,14.5589425 40.3494747,14.4512744 40.3020528,14.3855615 C40.2541264,14.3193432 40.1663455,14.2409932 40.0195394,14.2409932 L9.54996256,14.2409932 L9.54996256,10.6015103 L40.0195394,10.6015103 C41.2893363,10.6015103 42.4935497,11.2161785 43.2401924,12.2453434 C43.986835,13.2750138 44.19872,14.6120183 43.8067327,15.8221463 L39.0504174,30.2511795 C38.5186868,31.8919797 36.9966458,33 35.2662511,33" fill="currentColor"></path>
</svg>
