<svg id="icon-resources-guidelines" width="48px" height="35px" viewBox="0 0 48 35" version="1.1" xmlns="http://www.w3.org/2000/svg" xmlns:xlink="http://www.w3.org/1999/xlink">
    <path fill="currentColor" d="M4.47556526,3.24468004 L5.08386267,7.06160922 L24.0763196,4.0559587 L24.0763196,21.6050276 L27.9550911,21.6050276 L27.9550911,4.0844152 L43.7352635,6.78295031 L43.7352635,30.1419771 C43.7352635,30.5237237 43.3904359,30.8136578 43.012742,30.749228 L28.106492,28.2004922 C26.7228713,27.9642496 25.3090782,27.9642496 23.9254575,28.2004922 L9.0192075,30.749228 C8.64151354,30.8136578 8.29614716,30.5237237 8.29614716,30.1419771 L8.29614716,13.2511661 L0.614035088,13.2511661 L0.614035088,17.1164176 L4.4173756,17.1164176 L4.4173756,32.5355444 C4.4173756,34.0625309 5.79776354,35.2217305 7.3080006,34.9640113 L24.9707161,31.943864 C25.6619877,31.8252058 26.369423,31.8252058 27.0612334,31.943864 L44.7234101,34.9640113 C46.2341859,35.2217305 47.6140351,34.0625309 47.6140351,32.5355444 L47.6140351,3.52387587 L28.0407592,0.177284276 C26.7077851,-0.0503677108 25.3467937,-0.0589583518 24.0111256,0.152586183 L4.47556526,3.24468004 Z"></path>
</svg>
