<svg width="20" height="17" viewBox="0 0 20 17" xmlns="http://www.w3.org/2000/svg">
    <path fill="currentColor" d="M6.2359 16.1124c7.4827 0 11.5755-6.1994 11.5755-11.5755 0-.176 0-.3514-.012-.5259a8.2775 8.2775 0 0 0 2.0298-2.1058 8.1205 8.1205 0 0 1-2.3367.64A4.0824 4.0824 0 0 0 19.2811.295a8.153 8.153 0 0 1-2.5833.9875c-1.2611-1.341-3.265-1.6691-4.8879-.8005-1.623.8685-2.4614 2.7179-2.0452 4.511A11.5501 11.5501 0 0 1 1.38.7424C.3003 2.6013.852 4.9794 2.6397 6.1732A4.038 4.038 0 0 1 .7932 5.664v.0515c.0005 1.9366 1.3656 3.6046 3.2639 3.988a4.0618 4.0618 0 0 1-1.837.0699c.533 1.6572 2.0603 2.7926 3.8008 2.8252A8.1633 8.1633 0 0 1 0 14.285a11.5176 11.5176 0 0 0 6.2359 1.8243"/>
</svg>
