<svg id="icon-error" width="17px" height="16px" viewBox="0 0 17 16" version="1.1" xmlns="http://www.w3.org/2000/svg" xmlns:xlink="http://www.w3.org/1999/xlink">
        <path d="M9.71361377,1.0524147 L16.7731012,13.0582497 C17.1650143,13.7247632 16.9424067,14.5827875 16.2758931,14.9747006 C16.0607943,15.1011797 15.8158002,15.1678711 15.5662717,15.1678711 L1.44729682,15.1678711 C0.674098168,15.1678711 0.047296818,14.5410698 0.047296818,13.7678711 C0.047296818,13.5183426 0.113988196,13.2733485 0.24046732,13.0582497 L7.29995477,1.0524147 C7.69186786,0.385901172 8.54989216,0.163293534 9.21640569,0.555206624 C9.42174159,0.675945096 9.59287529,0.847078804 9.71361377,1.0524147 Z" id="triangle-shape" fill="currentColor"></path>
        <path d="M7.45692251,4.82027753 L9.55664603,4.82027753 L9.55664603,9.64082998 L7.45692251,9.64082998 L7.45692251,4.82027753 Z M7.45692251,10.710262 L9.55664603,10.710262 L9.55664603,12.806848 L7.45692251,12.806848 L7.45692251,10.710262 Z" id="exclamation-shape" fill="#FFFFFF"></path>
</svg>
