<svg id="icon-training" width="72px" height="60px" viewBox="0 0 72 60" version="1.1" xmlns="http://www.w3.org/2000/svg"
     xmlns:xlink="http://www.w3.org/1999/xlink">
    <g fill="currentColor">
        <path d="M70.4044286,9.5904 C71.4608571,11.4457846 71.3998393,13.7147077 70.2450536,15.5128615 C69.7787679,16.2384 69.5438036,17.1633231 69.5465357,18.2636308 C69.5438036,19.4110154 69.7787679,20.3359385 70.2450536,21.0605538 C71.3998393,22.8596308 71.4608571,25.1294769 70.4044286,26.9839385 C69.41175,28.7257846 67.4637321,29.8039385 65.312625,29.8039385 L65.2780179,29.8039385 L65.287125,27.9577846 L65.3098929,27.9577846 C66.492,27.9577846 68.0292857,27.4602462 68.8270714,26.0608615 C69.53925,24.8110154 69.4973571,23.2805538 68.7186964,22.0676308 C68.0566071,21.0374769 67.722375,19.7719385 67.7251071,18.3070154 C67.722375,16.8014769 68.0566071,15.5368615 68.7186964,14.5048615 C69.4973571,13.2928615 69.53925,11.7633231 68.8270714,10.5134769 C68.1094286,9.2544 66.7816071,8.53163077 65.3372143,8.61378462 C64.1387143,8.6904 62.915625,8.37193846 61.8036429,7.70178462 C61.7034643,7.64270769 61.5996429,7.58086154 61.494,7.52270769 C60.3483214,6.8784 59.4567321,5.9544 58.9084821,4.84670769 C58.2646071,3.54793846 56.9750357,2.74024615 55.5433929,2.74024615 C54.11175,2.74024615 52.8221786,3.54793846 52.1783036,4.84670769 C51.6309643,5.95532308 50.7375536,6.8784 49.5973393,7.51993846 L49.2804107,7.70363077 C48.1711607,8.37101538 46.9517143,8.68578462 45.7504821,8.61378462 C44.3215714,8.5224 42.9773571,9.2544 42.2597143,10.5134769 C41.5475357,11.7633231 41.5894286,13.2937846 42.3680893,14.5057846 C43.0301786,15.5359385 43.3653214,16.8014769 43.3625893,18.2664 L43.3616786,18.2664 L43.3616786,18.2857846 C43.3625893,18.4528615 43.3352679,18.5950154 43.3279821,18.7547077 L61.0878214,27.8719385 L61.0878214,30.3974769 L50.9424643,35.6054769 L50.9424643,46.7857846 L52.7948571,44.4227077 C53.5288929,43.4857846 54.6272143,42.9485538 55.8084107,42.9485538 C56.9896071,42.9485538 58.0879286,43.4857846 58.8219643,44.4227077 L61.1260714,47.3617846 L61.1260714,35.0867077 L62.9475,35.0867077 L62.9475,50.3793231 L61.5878036,50.8630154 L61.14975,50.3580923 L57.3966964,45.5710154 C56.6225893,44.5842462 54.9951429,44.5824 54.220125,45.5710154 L50.8559464,49.8624 C50.5982143,51.1916308 49.719375,52.3325538 48.4580357,52.8790154 L33.0013929,59.5916308 C32.3748214,59.8639385 31.7018036,59.9996308 31.0287857,59.9996308 C30.3557679,59.9996308 29.6836607,59.8639385 29.0570893,59.5916308 L21.3597321,56.2491692 L22.4361964,53.7033231 L30.1326429,57.0457846 C30.7018393,57.2931692 31.3557321,57.2931692 31.9258393,57.0457846 L47.3824821,50.3340923 C47.8851964,50.1153231 48.2103214,49.6159385 48.2103214,49.0611692 L48.2103214,37.0076308 L33.2891786,44.6682462 C32.5797321,45.0328615 31.8019821,45.2147077 31.0251429,45.2147077 C30.250125,45.2147077 29.4760179,45.0328615 28.7693036,44.6719385 L30.0005893,42.1999385 C30.6435536,42.5285538 31.4112857,42.5267077 32.05425,42.1980923 L57.5014286,29.1347077 L32.0633571,16.0759385 C31.4158393,15.7427077 30.6444643,15.7445538 29.9996786,16.0787077 L28.758375,13.6122462 C30.18,12.8774769 31.8766607,12.8765538 33.2991964,13.6067077 L41.5156607,17.8242462 C41.457375,16.9039385 41.2388036,16.1313231 40.8426429,15.5137846 C39.6869464,13.7165538 39.6250179,11.4467077 40.6823571,9.5904 C41.7469821,7.72209231 43.726875,6.64763077 45.8588571,6.77132308 C46.6939821,6.82024615 47.5564286,6.59409231 48.3533036,6.11501538 C48.4735179,6.04301538 48.5928214,5.97286154 48.7130357,5.90547692 C49.5326786,5.44486154 50.1674464,4.79316923 50.5508571,4.01963077 C51.5061964,2.09132308 53.4186964,0.894092308 55.5433929,0.894092308 C57.6680893,0.894092308 59.5815,2.09132308 60.5359286,4.01963077 C60.9184286,4.79316923 61.5541071,5.44486154 62.37375,5.9064 C62.4912321,5.97101538 62.6114464,6.04116923 62.7316607,6.11316923 C63.5321786,6.59501538 64.3928036,6.8184 65.2279286,6.77132308 C67.352625,6.64393846 69.3398036,7.72209231 70.4044286,9.5904 Z M29.87775,16.1313333 L3.6924375,29.0985 L10.0430625,32.2445 L8.7718125,34.6975 L-0.000375,30.3534167 L-0.000375,27.8445 L28.6074375,13.6783333 L29.87775,16.1313333 Z M29.5521829,42.1093993 L28.2497597,44.5679152 L15.9223959,38.6007774 L15.9223959,53 L14,53 L14,35.84 L32.1262711,27 L33,28.6362544 L17.4180199,36.235053 L29.5521829,42.1093993 Z M60.7023203,24 L59.515626,22.7196073 C60.6274917,21.7224949 61.2393259,20.3693329 61.2393259,18.9096159 C61.2393259,16.0551545 58.8800226,13.7326018 55.9793121,13.7326018 C53.2846004,13.7326018 51.0370999,15.7181634 50.75011,18.3508519 L49,18.1671961 C49.3820663,14.651747 52.3831353,12 55.9793121,12 C59.8510344,12 63,15.1004909 63,18.9096159 C63,20.8345365 62.1627995,22.6892867 60.7023203,24 Z"
              id="shape"></path>
    </g>
</svg>
