<svg width="19" height="23" viewBox="0 0 19 23" xmlns="http://www.w3.org/2000/svg" xmlns:xlink="http://www.w3.org/1999/xlink">
    <defs><filter id="a"><feColorMatrix in="SourceGraphic" values="0 0 0 0 0.338841 0 0 0 0 0.488169 0 0 0 0 0.514521 0 0 0 1.000000 0"/></filter><path id="b" d="M0 .2072h18.731v21.3022H0z"/></defs>
    <g filter="url(#a)" fill="none" fill-rule="evenodd"><g transform="translate(0 .0959)">
        <mask id="c" fill="#fff"><use xlink:href="#b"/></mask>
        <path d="M3.0591.2071v1.8177h13.587c.1476 0 .2672.12.2672.2675v17.1522a.247.247 0 01-.2472.2472H4.174a.206.206 0 01-.206-.2057V6.4373H0V8.255h2.1503v11.6793c0 .8698.7052 1.575 1.575 1.575h13.763c.6865 0 1.2427-.5565 1.2427-1.2426V1.2535c0-.5777-.4683-1.0464-1.0464-1.0464H3.0591z" fill="#000" mask="url(#c)"/></g><path fill="#000" d="M7.714 9.8489h1.9731V14.62H7.8664v1.8177h5.453V14.62h-1.8146V8.0312H7.714zM9.2445 6.5281h2.3479V4.4665H9.2445z"/></g></svg>
