<svg id="icon-pencil" width="17px" height="18px" viewBox="0 0 17 18" version="1.1" xmlns="http://www.w3.org/2000/svg" xmlns:xlink="http://www.w3.org/1999/xlink">
    <path d="M5.45475786,17.0959916 L0.800022937,17.0959916 L0.800022937,12.4412567 C0.800022937,12.0155551 0.969065,11.6070559 1.27022135,11.3058996 L8.99844833,3.5776726 L11.8797325,6.45941545 L10.8808475,7.45852974 L9.13446183,5.71237339 L2.53998643,12.3070782 C2.45397452,12.3930901 2.40557849,12.5098369 2.40557849,12.6316297 L2.40557849,15.7198012 L5.02584516,15.7198012 C5.14763802,15.7198012 5.26415548,15.6714051 5.35016738,15.5853932 L14.7153729,6.22959165 C14.8947364,6.05022815 14.8947364,5.75985196 14.7153729,5.58071784 L10.8501126,1.71522815 L11.9852404,0.580100375 L16.1752817,4.76968291 C16.8023658,5.39676704 16.8023658,6.41331307 16.1752817,7.0403972 L6.590115,16.6257932 C6.28895865,16.9269496 5.88045944,17.0959916 5.45475786,17.0959916" fill="currentColor"></path>
</svg>
