<svg id="icon-resources-materials" width="48px" height="43px" viewBox="0 0 48 43" version="1.1" xmlns="http://www.w3.org/2000/svg" xmlns:xlink="http://www.w3.org/1999/xlink">
    <path d="M6.22302114,20.1310404 L0.638007157,20.1310404 L0.638007157,16.5182343 L8.85029962,16.5182343 L23.3083507,24.6387809 L42.6045978,14.4197309 L23.2779486,4.18493429 L8.38733477,12.0661319 L4.67881561,9.84480465 L23.2779486,0 L47.6380072,12.9007042 L47.6380072,15.9387576 L23.2475465,28.8552085 L10.4805551,21.6849754 L10.4805551,32.5728849 C10.4805551,33.0400086 10.7466841,33.4662125 11.1660228,33.6702802 L22.1955327,39.0302457 C22.8656264,39.3554785 23.6475792,39.3554785 24.3176729,39.0302457 L35.3466526,33.6708116 C35.7659914,33.4672753 36.0321204,33.04054 36.0321204,32.5734163 L36.0321204,28.1179383 L40.2896543,25.7796627 L40.2896543,32.7269985 C40.2896543,34.3627286 39.3571425,35.8539108 37.8891919,36.5676163 L25.9096757,42.3893912 C24.2344413,43.2035363 22.2792944,43.2035363 20.6035299,42.3893912 L8.62348356,36.5681477 C7.15500279,35.8544422 6.22302114,34.3627286 6.22302114,32.7275299 L6.22302114,20.1310404 Z" fill="currentColor"></path>
</svg>
