<svg id="icon-resources"  width="58px" height="47px" viewBox="0 0 58 47" version="1.1" xmlns="http://www.w3.org/2000/svg" xmlns:xlink="http://www.w3.org/1999/xlink">
    <g  fill="currentColor">
        <path d="M26.7308421,23.3523142 L9.81454968,23.3523142 L9.81454968,25.7319859 L46.4099333,25.7319859 C46.7946469,25.7319859 47.1452518,25.9112545 47.3721139,26.2221982 C47.5989759,26.5339352 47.6600541,26.9226149 47.5410706,27.2906708 L42.3176913,43.4565734 C42.1582533,43.9483722 41.7029428,44.2791466 41.1857608,44.2791466 L40.5353173,44.2791466 L2.50657809,44.2791466 L2.50657809,13.4108394 L13.2952161,13.4108394 L15.141048,15.6937377 C15.8224273,16.5353482 16.8337878,17.0192148 17.9165384,17.0192148 L25.1293231,17.0192148 C25.2292693,19.2331026 25.770248,21.3803597 26.7308421,23.3523142 M41.2738087,0.109268136 C32.9108493,0.109268136 26.0105948,6.48996101 25.185642,14.6395431 L17.9165384,14.6395431 C17.5556215,14.6395431 17.2185014,14.4777255 16.9916393,14.1969242 L14.4319059,11.0311677 L0.126906451,11.0311677 L0.126906451,46.6588182 L1.31674227,46.6588182 L40.5353173,46.6588182 L41.1857608,46.6588182 C42.7373068,46.6588182 44.1016518,45.6672884 44.5815523,44.1895123 L49.8049315,28.0236096 C50.1618823,26.9249946 49.9762679,25.7581622 49.2972682,24.8229513 C48.6174754,23.8885336 47.5656605,23.3523142 46.4099333,23.3523142 L28.5203552,23.3523142 C27.3225871,21.1955385 26.6888012,18.7769989 26.6888012,16.2807233 C26.6888012,8.23822644 33.2313118,1.69571589 41.2738087,1.69571589 C49.3163056,1.69571589 55.8588161,8.23822644 55.8588161,16.2807233 C55.8588161,19.6376468 54.7498892,22.7938846 52.651812,25.4067641 L53.888448,26.3998804 C56.1824515,23.5442744 57.4452639,19.950177 57.4452639,16.2807233 C57.4452639,7.36409373 50.1912315,0.109268136 41.2738087,0.109268136"></path>
        <path d="M38.9437136,11.9442477 L45.3378912,15.6359117 L38.9437136,19.3283688 L38.9437136,11.9442477 Z M37.3572658,10.2419893 L37.3572658,21.029834 L38.2647139,21.5517753 L47.6073048,16.157853 L47.6073048,15.1147636 L38.2647139,9.72004797 L37.3572658,10.2419893 Z"></path>
    </g>
</svg>
