<svg viewBox="0 0 19 23" xmlns="http://www.w3.org/2000/svg"><mask id="a" height="21.3" maskUnits="userSpaceOnUse" width="18.7" x="0" y=".2"><path clip-rule="evenodd" d="M0 .2h18.7v21.3H0z" fill="#fff" fill-rule="evenodd"/></mask><mask id="b" height="2.1" maskUnits="userSpaceOnUse" width="2.3" x="9.2" y="4.5"><path clip-rule="evenodd" d="M0 21.6h18.7V.3H0z" fill="#fff" fill-rule="evenodd"/></mask><g clip-rule="evenodd" fill="#567c83" fill-rule="evenodd"><path d="M3.1.2V2h13.6c.1 0 .3.1.3.3v17.2c0 .1-.1.2-.2.2H4.2c-.1 0-.2-.1-.2-.2v-13H0v1.8h2.2V20c0 .9.7 1.6 1.6 1.6h13.8c.7 0 1.2-.6 1.2-1.2v-19c0-.6-.5-1-1-1H3.1z" mask="url(#a)" transform="translate(0 .0959)"/><path d="M7.7 9.8h2v4.8H7.9v1.8h5.4v-1.8h-1.8V8H7.7z"/><path d="M9.2 6.5h2.4v-2H9.2z" mask="url(#b)"/></g></svg>
