<svg id="icon-resources-experts-committees" width="32px" height="44px" viewBox="0 0 32 44" version="1.1"
     xmlns="http://www.w3.org/2000/svg" xmlns:xlink="http://www.w3.org/1999/xlink">
    <g transform="translate(-849.000000, -464.000000)" fill="currentColor">
        <path d="M865.891355,495.156483 C873.791622,494.732393 880.217514,488.581805 880.838937,480.850238 C881.206877,476.274475 879.529194,471.797171 876.2355,468.565472 C872.942328,465.334798 868.378612,463.685615 863.715594,464.049707 C855.837277,464.659433 849.569223,470.963863 849.13543,478.714404 C849.08212,479.667709 849.116615,480.626655 849.237345,481.564576 L853.385561,481.048694 C853.296189,480.356406 853.271102,479.646171 853.3103,478.939012 C853.629635,473.230975 858.24457,468.588035 864.044859,468.138818 C867.486461,467.873184 870.85228,469.085456 873.279432,471.466925 C875.706063,473.84788 876.942113,477.150347 876.670861,480.527683 C876.213549,486.219311 871.481019,490.747382 865.662438,491.060194 C862.878843,491.207882 860.129219,490.387393 857.924712,488.743852 L857.064443,488.102845 L853.133647,489.906382 L853.134169,503.504955 C853.134169,505.260801 854.139734,506.81614 855.758358,507.564836 C856.389188,507.856622 857.057126,507.999695 857.719314,507.999695 C858.724356,507.999695 859.715809,507.669448 860.54263,507.027928 L863.661761,504.683382 L863.801307,504.579795 C864.496422,504.016735 865.504077,504.017248 866.199192,504.579283 L869.457346,507.027416 C870.829283,508.092512 872.653307,508.300199 874.241618,507.564323 C875.860765,506.81614 876.866329,505.260288 876.866329,503.504443 L876.866329,498.048706 L872.685188,499.921984 L872.685188,503.562902 C872.685188,503.623413 872.685188,503.807511 872.459406,503.91161 C872.233102,504.014684 872.088852,503.898277 872.041292,503.860329 L868.786273,501.571679 C866.577062,499.838909 863.423959,499.838909 861.214226,501.571679 L858.09823,503.756743 L857.959207,503.860842 C857.911646,503.89879 857.768442,504.017761 857.54057,503.91161 C857.315311,503.807511 857.315311,503.623413 857.315311,503.563415 L857.314788,493.23654 C859.913368,494.643678 862.885114,495.313915 865.891355,495.156483"
              id="Fill-18"></path>
    </g>
</svg>
