<svg id="icon-resources-education" width="48px" height="43px" viewBox="0 0 48 43" version="1.1" xmlns="http://www.w3.org/2000/svg" xmlns:xlink="http://www.w3.org/1999/xlink">
    <path d="M5.72302114,20.1310404 L0.138007157,20.1310404 L0.138007157,16.5182343 L8.35029962,16.5182343 L22.8083507,24.6387809 L42.1045978,14.4197309 L22.7779486,4.18493429 L7.88733477,12.0661319 L4.17881561,9.84480465 L22.7779486,0 L47.1380072,12.9007042 L47.1380072,15.9387576 L22.7475465,28.8552085 L9.9805551,21.6849754 L9.9805551,32.5728849 C9.9805551,33.0400086 10.2466841,33.4662125 10.6660228,33.6702802 L21.6955327,39.0302457 C22.3656264,39.3554785 23.1475792,39.3554785 23.8176729,39.0302457 L34.8466526,33.6708116 C35.2659914,33.4672753 35.5321204,33.04054 35.5321204,32.5734163 L35.5321204,28.1179383 L39.7896543,25.7796627 L39.7896543,32.7269985 C39.7896543,34.3627286 38.8571425,35.8539108 37.3891919,36.5676163 L25.4096757,42.3893912 C23.7344413,43.2035363 21.7792944,43.2035363 20.1035299,42.3893912 L8.12348356,36.5681477 C6.65500279,35.8544422 5.72302114,34.3627286 5.72302114,32.7275299 L5.72302114,20.1310404 Z" fill="currentColor" fill-rule="nonzero"></path>
</svg>
