<svg id="icon-discussions" width="67px" height="50px" viewBox="0 0 67 50" version="1.1"
     xmlns="http://www.w3.org/2000/svg"
     xmlns:xlink="http://www.w3.org/1999/xlink">
    <g fill="currentColor">
        <path d="M31.3747599,37.658 C31.233841,37.9052727 31.2160031,38.2070909 31.3265977,38.4707273 L34.9601653,47.1325455 C34.9699761,47.1552727 34.9860302,47.1934545 34.9396518,47.2425455 C34.8932734,47.2898182 34.8549221,47.2725455 34.830841,47.2634545 L26.2053545,43.5752727 C26.0947599,43.5270909 25.9770302,43.5043636 25.8601923,43.5043636 C25.7112464,43.5043636 25.5631923,43.5425455 25.4294085,43.6170909 C22.4299761,45.3043636 19.0247329,45.9189091 15.5829221,45.3989091 C8.79294909,44.3716364 3.44427341,38.8025455 2.5764626,31.8552727 C1.96284098,26.9398182 3.55665179,22.1234545 6.94851666,18.6407273 C10.3403815,15.158 15.0504626,13.4925455 19.8747058,14.0898182 C26.679841,14.9225455 32.3237329,20.5552727 33.2941113,27.4816364 C33.7926788,31.0425455 33.1291113,34.5616364 31.3747599,37.658 L31.3747599,37.658 Z M17.9482194,0.699818182 L17.9482194,8.63709091 L20.623895,8.63709091 L20.623895,3.42709091 L56.5510842,3.42709091 L63.7192194,3.42709091 L63.7192194,31.8189091 L57.9879221,31.8189091 C56.9096248,31.8189091 55.8777058,32.2952727 55.1570572,33.1252727 L48.3412194,42.1852727 C48.2894896,42.2307273 48.1985167,42.2798182 48.0656248,42.2252727 C47.9710842,42.1870909 47.8587058,42.098 47.8587058,41.8916364 L47.8587058,34.9007273 C47.8587058,33.2016364 46.5199761,31.8189091 44.8744356,31.8189091 L35.1135707,31.8189091 C35.2865977,30.3107273 35.2767869,28.7725455 35.0600572,27.2234545 C33.9603545,19.3725455 27.8036248,13.2289091 20.0869761,12.2843636 C14.7133275,11.6270909 9.46454368,13.4761818 5.68203017,17.3598182 C1.90040855,21.2425455 0.122868009,26.6098182 0.80694909,32.0843636 C1.77465179,39.8361818 7.74319233,46.0507273 15.3207058,47.1970909 C19.0077869,47.7570909 22.6574085,47.1407273 25.9065707,45.4189091 L34.1405167,48.9398182 C34.3786518,49.0416364 34.6265977,49.0907273 34.8727599,49.0907273 C35.3624085,49.0907273 35.8431383,48.8943636 36.2043545,48.5234545 C36.7475167,47.9661818 36.9035977,47.1398182 36.6003545,46.4170909 L33.139814,38.1670909 C33.7596788,37.0052727 34.2350572,35.7925455 34.5820031,34.5461818 L44.8744356,34.5461818 C45.0447869,34.5461818 45.1830302,34.7052727 45.1830302,34.9007273 L45.1830302,41.8916364 C45.1830302,43.1652727 45.9241923,44.2898182 47.0720572,44.758 C47.4297058,44.9043636 47.8016248,44.9752727 48.170868,44.9752727 C48.9646518,44.9743636 49.7405977,44.6461818 50.315868,44.0307273 L57.1861113,34.9043636 C57.3974896,34.6761818 57.6873545,34.5461818 57.9879221,34.5461818 L66.394895,34.5461818 L66.394895,0.699818182 L56.5510842,0.699818182 L17.9482194,0.699818182 Z"></path>
        <path d="M18.1632653,21 C15.1307867,21 12.6632653,23.1742851 12.6632653,25.8470776 L14.372667,25.8470776 C14.372667,24.1255888 16.0735217,22.7249386 18.1632653,22.7249386 C20.2530089,22.7249386 21.9538636,24.1255888 21.9538636,25.8470776 C21.9538636,26.7587076 21.4683935,27.6237643 20.621385,28.2197306 C18.6085645,29.6384927 17.3085645,31.906787 17.3085645,34 L19.0179662,34 C19.0179662,32.4777417 20.055573,30.7226166 21.6000174,29.6341803 C22.9111286,28.7096132 23.6632653,27.3296623 23.6632653,25.8470776 C23.6632653,23.1742851 21.1957439,21 18.1632653,21"></path>
        <path d="M17.1632653,36 C16.3347144,36 15.6632653,36.6714491 15.6632653,37.501076 C15.6632653,38.3285509 16.3347144,39 17.1632653,39 C17.9918162,39 18.6632653,38.3285509 18.6632653,37.501076 C18.6632653,36.6714491 17.9918162,36 17.1632653,36"></path>
        <polygon points="35.6632653 19 54.6632653 19 54.6632653 16 35.6632653 16"></polygon>
    </g>
</svg>
